<svg width="717" height="211" viewBox="0 0 717 211" fill="none" xmlns="http://www.w3.org/2000/svg">
<g clip-path="url(#clip0_9_24)">
<path d="M191.711 115.091C191.711 168.056 148.792 211 95.8556 211C135.557 211 167.747 178.792 167.747 139.068C167.747 99.3442 135.557 67.1364 95.8556 67.1364C56.1538 67.1364 23.9639 99.3442 23.9639 139.068C23.9639 178.792 56.1538 211 95.8556 211C42.9197 211 0 168.056 0 115.091C0 62.1255 42.9197 19.1818 95.8556 19.1818C148.792 19.1818 191.711 62.1255 191.711 115.091ZM95.8556 115.091C69.3875 115.091 47.9278 136.563 47.9278 163.045C47.9278 187.877 66.8604 208.061 91.0231 210.508C80.1061 208.272 71.8917 198.613 71.8917 187.023C71.8917 173.781 82.6215 163.045 95.8556 163.045C109.09 163.045 119.82 173.781 119.82 187.023C119.82 198.613 111.605 208.272 100.688 210.508C124.851 208.061 143.783 187.877 143.783 163.045C143.783 136.563 122.324 115.091 95.8556 115.091Z" fill="url(#paint0_linear_9_24)"/>
<path d="M259.77 57.5455L328.013 159.442H328.363V57.5455H345.161V181.502H323.813L254.87 79.6056H254.52V181.502H237.722V57.5455H259.77ZM410.955 96.4133C423.67 96.4133 433.557 100.411 440.615 108.406C447.672 116.402 451.26 127.403 451.376 141.409V145.786H384.883C384.883 152.556 387.595 158.246 393.019 162.856C398.444 167.467 405.064 169.83 412.88 169.947C421.512 169.947 429.095 165.804 435.628 157.516L447.526 166.621C438.661 177.942 426.411 183.603 410.78 183.603C398.065 183.603 387.827 179.547 380.07 171.435C372.313 163.323 368.318 152.847 368.084 140.008C368.084 127.636 372.08 117.335 380.07 109.107C388.061 100.878 398.356 96.6471 410.955 96.4133ZM434.578 133.18C434.344 125.36 432.128 119.378 427.928 115.235C423.729 111.091 417.954 109.019 410.605 109.019C405.705 109.019 401.302 110.215 397.394 112.608C393.486 115.001 390.424 118.094 388.207 121.888C385.991 125.681 384.883 129.445 384.883 133.18H434.578ZM483.923 98.5143L504.046 127.928L523.819 98.5143H542.892L514.545 137.207L548.142 181.502H527.843L503.346 146.661L478.848 181.502H459.425L493.022 137.207L463.625 98.5143H483.923ZM576.839 98.5143V148.237C576.839 154.773 578.559 159.851 582.001 163.469C585.442 167.087 590.021 168.897 595.737 168.897C603.086 168.897 608.773 166.475 612.798 161.631C616.822 156.787 618.835 150.222 618.835 141.934V98.5143H634.583V181.502H618.835V168.722H618.485C616.268 173.39 612.652 177.038 607.636 179.664C602.62 182.29 597.137 183.603 591.187 183.603C581.972 183.603 574.651 180.744 569.227 175.024C563.802 169.305 561.09 161.835 561.09 152.614V98.5143H576.839ZM686.378 96.4133C692.677 96.4133 698.306 97.581 703.264 99.9153C708.222 102.25 712.042 105.634 714.725 110.07L702.476 119.349C697.81 113.863 692.152 111.12 685.503 111.12C681.537 111.12 678.241 111.996 675.617 113.747C672.992 115.497 671.679 117.715 671.679 120.4C671.679 126.236 677.104 130.204 687.953 132.305C698.568 134.289 706.064 137.207 710.438 141.059C714.813 144.911 717 150.397 717 157.517C717 165.57 713.938 171.902 707.813 176.513C701.689 181.124 693.494 183.487 683.228 183.604C675.529 183.604 669.201 182.407 664.243 180.015C659.284 177.622 654.997 173.916 651.381 168.897L663.28 159.093C669.58 165.629 676.288 168.897 683.403 168.897C688.07 168.897 692.036 167.963 695.302 166.096C698.568 164.228 700.202 161.66 700.202 158.392C700.202 152.673 694.952 148.704 684.453 146.487C672.788 144.152 664.943 141.03 660.918 137.12C656.893 133.209 654.881 128.162 654.881 121.975C654.881 114.272 657.856 108.115 663.805 103.504C669.755 98.8935 677.279 96.5301 686.378 96.4133Z" fill="url(#paint1_linear_9_24)"/>
</g>
<defs>
<linearGradient id="paint0_linear_9_24" x1="95.8556" y1="19.1818" x2="95.8556" y2="211" gradientUnits="userSpaceOnUse">
<stop stop-color="#00873A"/>
<stop offset="1" stop-color="#59D293"/>
</linearGradient>
<linearGradient id="paint1_linear_9_24" x1="237.722" y1="120.575" x2="717" y2="120.575" gradientUnits="userSpaceOnUse">
<stop stop-color="#038A3D"/>
<stop offset="1" stop-color="#4FCB8A"/>
</linearGradient>
<clipPath id="clip0_9_24">
<rect width="717" height="211" fill="white"/>
</clipPath>
</defs>
</svg>
